<svg xmlns="http://www.w3.org/2000/svg" xmlns:xlink="http://www.w3.org/1999/xlink" width="100" zoomAndPan="magnify" viewBox="0 0 75 74.999997" height="100" preserveAspectRatio="xMidYMid meet" version="1.0"><path fill="#ffffff" d="M 37.5 0 C 36.613281 0 35.730469 0.03125 34.847656 0.09375 C 33.601562 0.183594 32.359375 0.332031 31.125 0.546875 C 29.894531 0.757812 28.671875 1.03125 27.46875 1.367188 C 26.265625 1.699219 25.078125 2.09375 23.910156 2.546875 C 22.746094 3 21.605469 3.511719 20.488281 4.078125 C 19.375 4.648438 18.289062 5.269531 17.238281 5.945312 C 16.1875 6.621094 15.167969 7.347656 14.1875 8.125 C 13.210938 8.902344 12.269531 9.726562 11.375 10.597656 C 10.476562 11.46875 9.625 12.386719 8.816406 13.34375 C 8.011719 14.296875 7.253906 15.292969 6.550781 16.324219 C 5.84375 17.359375 5.191406 18.425781 4.589844 19.523438 C 3.992188 20.617188 3.445312 21.746094 2.960938 22.898438 C 2.472656 24.046875 2.042969 25.222656 1.675781 26.417969 C 1.304688 27.613281 0.996094 28.824219 0.746094 30.050781 C 0.5 31.273438 0.3125 32.511719 0.1875 33.757812 C 0.0625 35 0 36.25 0 37.5 C 0 38.386719 0.03125 39.269531 0.09375 40.152344 C 0.183594 41.398438 0.332031 42.640625 0.546875 43.875 C 0.757812 45.105469 1.03125 46.328125 1.367188 47.53125 C 1.699219 48.734375 2.09375 49.921875 2.546875 51.089844 C 3 52.253906 3.511719 53.394531 4.078125 54.511719 C 4.648438 55.625 5.269531 56.710938 5.945312 57.761719 C 6.621094 58.8125 7.347656 59.832031 8.125 60.808594 C 8.902344 61.789062 9.726562 62.730469 10.597656 63.625 C 11.46875 64.523438 12.386719 65.375 13.339844 66.183594 C 14.296875 66.988281 15.292969 67.746094 16.324219 68.449219 C 17.359375 69.15625 18.425781 69.808594 19.523438 70.410156 C 20.617188 71.007812 21.746094 71.554688 22.898438 72.039062 C 24.046875 72.527344 25.222656 72.957031 26.417969 73.324219 C 27.613281 73.695312 28.824219 74.003906 30.050781 74.253906 C 31.273438 74.5 32.511719 74.6875 33.757812 74.8125 C 35 74.9375 36.25 75 37.5 75 C 38.382812 75 39.269531 74.96875 40.152344 74.90625 C 41.398438 74.816406 42.640625 74.667969 43.875 74.453125 C 45.105469 74.242188 46.328125 73.96875 47.53125 73.632812 C 48.734375 73.300781 49.921875 72.90625 51.089844 72.453125 C 52.253906 72 53.394531 71.488281 54.507812 70.921875 C 55.625 70.351562 56.710938 69.730469 57.761719 69.054688 C 58.8125 68.378906 59.832031 67.652344 60.808594 66.875 C 61.789062 66.097656 62.730469 65.273438 63.625 64.402344 C 64.523438 63.53125 65.375 62.613281 66.179688 61.660156 C 66.988281 60.703125 67.742188 59.707031 68.449219 58.675781 C 69.15625 57.640625 69.808594 56.574219 70.410156 55.476562 C 71.007812 54.382812 71.550781 53.253906 72.039062 52.101562 C 72.527344 50.953125 72.957031 49.777344 73.324219 48.582031 C 73.695312 47.386719 74.003906 46.175781 74.253906 44.949219 C 74.5 43.726562 74.6875 42.488281 74.8125 41.242188 C 74.9375 40 75 38.75 75 37.5 C 75 36.613281 74.96875 35.730469 74.90625 34.847656 C 74.816406 33.601562 74.667969 32.359375 74.453125 31.125 C 74.242188 29.894531 73.96875 28.671875 73.632812 27.46875 C 73.296875 26.265625 72.902344 25.078125 72.449219 23.910156 C 72 22.746094 71.488281 21.605469 70.921875 20.492188 C 70.351562 19.375 69.730469 18.289062 69.054688 17.238281 C 68.378906 16.1875 67.652344 15.167969 66.875 14.191406 C 66.097656 13.210938 65.273438 12.269531 64.402344 11.375 C 63.53125 10.476562 62.613281 9.625 61.65625 8.816406 C 60.703125 8.011719 59.707031 7.257812 58.675781 6.550781 C 57.640625 5.84375 56.574219 5.191406 55.476562 4.589844 C 54.382812 3.992188 53.253906 3.449219 52.101562 2.960938 C 50.953125 2.472656 49.777344 2.042969 48.582031 1.675781 C 47.386719 1.304688 46.175781 0.996094 44.949219 0.746094 C 43.726562 0.5 42.488281 0.3125 41.242188 0.1875 C 40 0.0625 38.75 0 37.5 0 Z M 37.5 0 " fill-opacity="1" fill-rule="nonzero"/><path fill="#ff0000" d="M 37.5 0 C 36.613281 0 35.730469 0.03125 34.847656 0.09375 C 34.097656 0.164062 33.347656 0.253906 32.601562 0.367188 L 32.601562 30.03125 L 0.753906 30.03125 C 0.75 30.039062 0.75 30.042969 0.746094 30.050781 C 0.5 31.277344 0.3125 32.511719 0.1875 33.757812 C 0.0625 35 0 36.25 0 37.5 C 0 38.386719 0.03125 39.269531 0.09375 40.152344 C 0.183594 41.398438 0.332031 42.640625 0.546875 43.875 C 0.648438 44.390625 0.765625 44.90625 0.890625 45.417969 L 32.601562 45.417969 L 32.601562 74.636719 C 32.984375 74.703125 33.371094 74.761719 33.757812 74.8125 C 35 74.9375 36.25 75 37.5 75 C 38.386719 75 39.269531 74.96875 40.152344 74.90625 C 40.878906 74.839844 41.605469 74.75 42.328125 74.640625 L 42.328125 45.417969 L 74.132812 45.417969 C 74.171875 45.261719 74.214844 45.105469 74.253906 44.949219 C 74.5 43.726562 74.6875 42.488281 74.8125 41.242188 C 74.9375 40 75 38.75 75 37.5 C 75 36.613281 74.96875 35.730469 74.90625 34.847656 C 74.816406 33.601562 74.667969 32.359375 74.453125 31.125 C 74.378906 30.761719 74.296875 30.394531 74.207031 30.03125 L 42.328125 30.03125 L 42.328125 0.351562 C 41.964844 0.292969 41.605469 0.238281 41.242188 0.1875 C 40 0.0625 38.75 0 37.5 0 Z M 61.78125 8.933594 L 45.679688 24.730469 L 51.363281 24.730469 L 64.828125 11.859375 C 64.6875 11.695312 64.542969 11.535156 64.402344 11.375 C 63.566406 10.519531 62.691406 9.703125 61.78125 8.933594 Z M 10.304688 11.746094 C 9.792969 12.265625 9.296875 12.796875 8.816406 13.34375 C 8.351562 13.917969 7.902344 14.511719 7.472656 15.113281 L 17.53125 24.730469 L 23.886719 24.730469 Z M 29.25 50.71875 L 23.3125 50.71875 L 10.238281 63.214844 C 10.359375 63.355469 10.476562 63.492188 10.597656 63.625 C 11.46875 64.519531 12.382812 65.371094 13.335938 66.175781 Z M 51.082031 50.71875 L 64.460938 63.507812 C 65.054688 62.910156 65.628906 62.292969 66.179688 61.65625 C 66.574219 61.167969 66.949219 60.671875 67.316406 60.164062 L 57.433594 50.71875 Z M 51.082031 50.71875 " fill-opacity="1" fill-rule="nonzero"/><path fill="#000080" d="M 45.660156 0.929688 L 45.660156 21.425781 L 60.148438 7.667969 C 59.664062 7.285156 59.175781 6.910156 58.675781 6.550781 C 57.640625 5.84375 56.574219 5.191406 55.476562 4.589844 C 54.382812 3.992188 53.253906 3.449219 52.101562 2.960938 C 50.953125 2.472656 49.777344 2.042969 48.582031 1.675781 C 47.617188 1.386719 46.644531 1.136719 45.660156 0.929688 Z M 29.226562 0.972656 C 28.636719 1.089844 28.050781 1.222656 27.46875 1.367188 C 26.265625 1.699219 25.078125 2.09375 23.910156 2.546875 C 22.746094 3 21.605469 3.511719 20.488281 4.078125 C 19.375 4.648438 18.289062 5.269531 17.238281 5.945312 C 16.394531 6.5 15.574219 7.085938 14.777344 7.703125 L 29.226562 21.425781 Z M 68.472656 16.425781 L 59.785156 24.71875 L 72.71875 24.71875 C 72.632812 24.449219 72.542969 24.179688 72.449219 23.910156 C 72 22.746094 71.488281 21.605469 70.921875 20.492188 C 70.351562 19.375 69.730469 18.289062 69.054688 17.238281 C 68.863281 16.964844 68.671875 16.695312 68.472656 16.425781 Z M 6.433594 16.515625 C 5.773438 17.488281 5.15625 18.492188 4.589844 19.523438 C 3.992188 20.617188 3.445312 21.746094 2.960938 22.898438 C 2.722656 23.5 2.5 24.105469 2.296875 24.71875 L 15.03125 24.71875 Z M 2.402344 50.644531 C 2.449219 50.792969 2.5 50.941406 2.546875 51.089844 C 3 52.253906 3.511719 53.394531 4.078125 54.511719 C 4.648438 55.625 5.269531 56.710938 5.945312 57.761719 C 6.160156 58.074219 6.378906 58.378906 6.605469 58.683594 L 15.03125 50.644531 Z M 59.785156 50.644531 L 68.34375 58.8125 C 68.378906 58.765625 68.414062 58.71875 68.449219 58.675781 C 69.15625 57.640625 69.808594 56.574219 70.410156 55.476562 C 71.007812 54.382812 71.550781 53.253906 72.039062 52.101562 C 72.226562 51.621094 72.402344 51.136719 72.570312 50.644531 Z M 29.226562 53.738281 L 14.886719 67.355469 C 15.355469 67.730469 15.835938 68.097656 16.324219 68.449219 C 17.359375 69.15625 18.425781 69.808594 19.523438 70.410156 C 20.617188 71.007812 21.746094 71.554688 22.898438 72.039062 C 24.046875 72.527344 25.222656 72.957031 26.417969 73.324219 C 27.34375 73.601562 28.28125 73.839844 29.226562 74.042969 Z M 45.660156 53.738281 L 45.660156 74.054688 C 46.289062 73.929688 46.910156 73.789062 47.53125 73.632812 C 48.734375 73.300781 49.921875 72.90625 51.089844 72.453125 C 52.253906 72 53.394531 71.488281 54.507812 70.921875 C 55.625 70.351562 56.710938 69.730469 57.761719 69.054688 C 58.546875 68.535156 59.316406 67.988281 60.058594 67.410156 Z M 45.660156 53.738281 " fill-opacity="1" fill-rule="evenodd"/></svg>