<svg xmlns="http://www.w3.org/2000/svg" xmlns:xlink="http://www.w3.org/1999/xlink" width="300" zoomAndPan="magnify" viewBox="0 0 224.87999 225" height="300" preserveAspectRatio="xMidYMid meet" version="1.0"><defs><filter x="0%" y="0%" width="100%" height="100%" id="292c708ae3"><feColorMatrix values="0 0 0 0 1 0 0 0 0 1 0 0 0 0 1 0 0 0 1 0" color-interpolation-filters="sRGB"/></filter><mask id="3bf593f726"><g filter="url(#292c708ae3)"><rect x="-22.487999" width="269.855988" fill="#000000" y="-22.5" height="270" fill-opacity="0.3"/></g></mask><clipPath id="a578f574c7"><path d="M 1 107 L 177.871094 107 L 177.871094 199.863281 L 1 199.863281 Z M 1 107 " clip-rule="nonzero"/></clipPath><clipPath id="05bc1d2301"><path d="M 38 3.46875 L 141 3.46875 L 141 106 L 38 106 Z M 38 3.46875 " clip-rule="nonzero"/></clipPath><clipPath id="a3c5e69889"><rect x="0" width="180" y="0" height="202"/></clipPath></defs><g mask="url(#3bf593f726)"><g transform="matrix(1, 0, 0, 1, 23, 11)"><g clip-path="url(#a3c5e69889)"><g clip-path="url(#a578f574c7)"><path fill="#e9eaff" d="M 128.4375 107.507812 C 117.125 115.8125 103.46875 120.304688 89.445312 120.332031 C 75.40625 120.300781 61.75 115.808594 50.421875 107.507812 C 22.917969 110.613281 1.722656 132.605469 1.722656 159.46875 L 1.722656 179.875 C 1.722656 194.136719 8.6875 199.421875 20.941406 199.320312 L 157.925781 199.320312 C 170.1875 199.421875 177.148438 194.136719 177.148438 179.875 L 177.148438 159.46875 C 177.148438 132.601562 155.949219 110.597656 128.4375 107.507812 Z M 128.4375 107.507812 " fill-opacity="1" fill-rule="nonzero"/></g><g clip-path="url(#05bc1d2301)"><path fill="#e9eaff" d="M 89.445312 3.386719 C 75.957031 3.386719 63.035156 8.742188 53.496094 18.273438 C 43.980469 27.808594 38.628906 40.730469 38.628906 54.207031 C 38.628906 67.679688 43.980469 80.613281 53.496094 90.136719 C 63.035156 99.667969 75.957031 105.015625 89.445312 105.015625 C 102.914062 105.015625 115.839844 99.667969 125.375 90.136719 C 134.90625 80.613281 140.257812 67.679688 140.257812 54.207031 C 140.257812 40.730469 134.90625 27.808594 125.375 18.273438 C 115.839844 8.738281 102.914062 3.386719 89.445312 3.386719 Z M 89.445312 3.386719 " fill-opacity="1" fill-rule="nonzero"/></g></g></g></g></svg>