<svg xmlns="http://www.w3.org/2000/svg" xmlns:xlink="http://www.w3.org/1999/xlink" width="500" zoomAndPan="magnify" viewBox="0 0 375 374.999991" height="500" preserveAspectRatio="xMidYMid meet" version="1.0"><defs><g/></defs><g fill="#ffffff" fill-opacity="1"><g transform="translate(127.13177, 159.562807)"><g><path d="M 67.203125 2.71875 C 57.992188 2.71875 49.484375 0.421875 41.671875 -4.171875 C 33.867188 -8.773438 27.664062 -14.984375 23.0625 -22.796875 C 18.46875 -30.609375 16.171875 -39.113281 16.171875 -48.3125 L 16.171875 -126.40625 L 118.234375 -126.40625 L 118.234375 -48.3125 C 118.234375 -39.113281 115.929688 -30.609375 111.328125 -22.796875 C 106.734375 -14.984375 100.53125 -8.773438 92.71875 -4.171875 C 84.90625 0.421875 76.398438 2.71875 67.203125 2.71875 Z M 67.203125 2.71875 "/></g></g></g><g fill="#ffffff" fill-opacity="1"><g transform="translate(-8.051853, 159.562807)"><g><path d="M 83.546875 -94.4375 L 47.953125 -94.4375 L 47.953125 -126.40625 L 116.609375 -126.40625 L 116.609375 -51.40625 C 116.609375 -40.144531 114.363281 -30.425781 109.875 -22.25 C 105.394531 -14.070312 99.25 -7.863281 91.4375 -3.625 C 83.632812 0.601562 74.953125 2.71875 65.390625 2.71875 C 56.179688 2.71875 47.671875 0.421875 39.859375 -4.171875 C 32.054688 -8.773438 25.851562 -14.984375 21.25 -22.796875 C 16.644531 -30.609375 14.34375 -39.113281 14.34375 -48.3125 L 47.40625 -48.3125 C 47.40625 -42.738281 49.007812 -38.078125 52.21875 -34.328125 C 55.425781 -30.578125 59.753906 -28.703125 65.203125 -28.703125 C 71.015625 -28.703125 75.523438 -30.546875 78.734375 -34.234375 C 81.941406 -37.929688 83.546875 -43.347656 83.546875 -50.484375 Z M 83.546875 -94.4375 "/></g></g></g><g fill="#ffffff" fill-opacity="1"><g transform="translate(246.093385, 159.562807)"><g><path d="M 21.796875 0 L 21.796875 -126.40625 L 68.828125 -126.40625 C 78.035156 -126.40625 86.539062 -124.101562 94.34375 -119.5 C 102.15625 -114.90625 108.363281 -108.703125 112.96875 -100.890625 C 117.570312 -93.078125 119.875 -84.570312 119.875 -75.375 L 119.875 -51.03125 C 119.875 -41.832031 117.570312 -33.328125 112.96875 -25.515625 C 108.363281 -17.703125 102.15625 -11.492188 94.34375 -6.890625 C 86.539062 -2.296875 78.035156 0 68.828125 0 Z M 21.796875 0 "/></g></g></g><g fill="#ffffff" fill-opacity="1"><g transform="translate(-8.051853, 317.94441)"><g><path d="M 66.296875 -122.421875 C 58.179688 -122.421875 50.640625 -120.390625 43.671875 -116.328125 C 36.710938 -112.273438 31.175781 -106.765625 27.0625 -99.796875 C 22.945312 -92.835938 20.890625 -85.242188 20.890625 -77.015625 L 20.890625 -53.03125 C 20.890625 -44.4375 22.097656 -37.351562 24.515625 -31.78125 C 27.910156 -23.914062 33.054688 -17.5 39.953125 -12.53125 C 46.859375 -7.5625 54.609375 -4.773438 63.203125 -4.171875 L 63.203125 -63.203125 L 118.59375 -63.203125 L 118.59375 -51.21875 C 118.59375 -43.46875 117.445312 -36.566406 115.15625 -30.515625 C 111.394531 -20.460938 105.09375 -12.410156 96.25 -6.359375 C 87.414062 -0.304688 77.429688 2.71875 66.296875 2.71875 C 55.753906 2.71875 46.15625 -0.15625 37.5 -5.90625 C 28.84375 -11.65625 22.519531 -19.3125 18.53125 -28.875 C 15.625 -35.65625 14.171875 -43.707031 14.171875 -53.03125 L 14.171875 -77.015625 C 14.171875 -86.453125 16.5 -95.164062 21.15625 -103.15625 C 25.820312 -111.15625 32.148438 -117.484375 40.140625 -122.140625 C 48.128906 -126.804688 56.847656 -129.140625 66.296875 -129.140625 C 74.160156 -129.140625 81.363281 -127.835938 87.90625 -125.234375 C 94.445312 -122.628906 100.015625 -118.84375 104.609375 -113.875 C 108.367188 -109.757812 111.425781 -105.160156 113.78125 -100.078125 C 116.144531 -94.992188 117.328125 -89.847656 117.328125 -84.640625 L 110.796875 -84.640625 C 110.671875 -89.117188 109.546875 -93.535156 107.421875 -97.890625 C 105.304688 -102.253906 102.613281 -106.191406 99.34375 -109.703125 C 91.238281 -118.179688 80.222656 -122.421875 66.296875 -122.421875 Z M 111.875 -56.671875 L 69.75 -56.671875 L 69.75 -4.171875 C 78.46875 -4.773438 86.304688 -7.53125 93.265625 -12.4375 C 100.222656 -17.34375 105.335938 -23.851562 108.609375 -31.96875 C 110.785156 -37.65625 111.875 -44.070312 111.875 -51.21875 Z M 111.875 -56.671875 "/></g></g></g><g fill="#ffffff" fill-opacity="1"><g transform="translate(127.13177, 317.94441)"><g><path d="M 21.796875 -126.40625 L 113.875 -126.40625 L 113.875 -94.4375 L 54.84375 -94.4375 L 54.84375 -78.46875 L 103.890625 -78.46875 L 103.890625 -48.125 L 54.84375 -48.125 L 54.84375 -31.96875 L 113.875 -31.96875 L 113.875 0 L 21.796875 0 Z M 21.796875 -126.40625 "/></g></g></g><g fill="#ffffff" fill-opacity="1"><g transform="translate(246.093385, 317.94441)"><g><path d="M 13.625 0 L 63.203125 -63.203125 L 13.625 -126.40625 L 120.96875 -126.40625 L 71.375 -63.203125 L 120.96875 0 Z M 67.203125 -68.65625 L 107.34375 -119.6875 L 27.25 -119.6875 Z M 107.34375 -6.71875 L 67.203125 -57.75 L 27.25 -6.71875 Z M 107.34375 -6.71875 "/></g></g></g></svg>