<svg xmlns="http://www.w3.org/2000/svg" xmlns:xlink="http://www.w3.org/1999/xlink" width="2400" zoomAndPan="magnify" viewBox="0 0 1800 1199.999942" height="1600" preserveAspectRatio="xMidYMid meet" version="1.0"><defs><clipPath id="8876bf5a1b"><path d="M 754 1 L 1800 1 L 1800 1200 L 754 1200 Z M 754 1 " clip-rule="nonzero"/></clipPath><clipPath id="f4e0f175f4"><path d="M 1797.890625 1.527344 L 2427.597656 945.53125 L 1383.5 1642.007812 L 753.792969 698.003906 Z M 1797.890625 1.527344 " clip-rule="nonzero"/></clipPath><clipPath id="792995246c"><path d="M 0 556 L 1591 556 L 1591 1200 L 0 1200 Z M 0 556 " clip-rule="nonzero"/></clipPath><clipPath id="68bddea2fa"><path d="M 960.988281 556.421875 L 1590.695312 1500.425781 L 546.59375 2196.90625 L -83.113281 1252.902344 Z M 960.988281 556.421875 " clip-rule="nonzero"/></clipPath></defs><rect x="-180" width="2160" fill="#ffffff" y="-119.999994" height="1439.999931" fill-opacity="1"/><rect x="-180" width="2160" fill="#ffffff" y="-119.999994" height="1439.999931" fill-opacity="1"/><path fill="#000000" d="M 0 0 L 1799.871094 0 L 1799.871094 1265.84375 L 0 1265.84375 Z M 0 0 " fill-opacity="1" fill-rule="nonzero"/><path stroke-linecap="butt" transform="matrix(0.624038, -0.416025, 0.416025, 0.624038, -0.832225, 1198.751129)" fill="none" stroke-linejoin="miter" d="M -0.000394958 2.001012 L 2884.440791 2.000936 " stroke="#ffffff" stroke-width="4" stroke-opacity="1" stroke-miterlimit="4"/><g clip-path="url(#8876bf5a1b)"><g clip-path="url(#f4e0f175f4)"><path fill="#ffffff" d="M 1797.890625 1.527344 L 2427.597656 945.53125 L 1384.03125 1641.652344 L 754.324219 697.648438 Z M 1797.890625 1.527344 " fill-opacity="1" fill-rule="nonzero"/></g></g><g clip-path="url(#792995246c)"><g clip-path="url(#68bddea2fa)"><path fill="#ffffff" d="M 960.988281 556.421875 L 1590.695312 1500.425781 L 547.128906 2196.550781 L -82.578125 1252.546875 Z M 960.988281 556.421875 " fill-opacity="1" fill-rule="nonzero"/></g></g></svg>